<svg width="32" height="32" viewBox="0 0 32 32" fill="none" xmlns="http://www.w3.org/2000/svg">
<path d="M5.76 24.16C4.78667 24.16 4.06 23.8067 3.58 23.1C3.1 22.38 2.86 21.1667 2.86 19.46V17.22C2.86 16.34 2.93333 15.5267 3.08 14.78C3.22667 14.02 3.5 13.4133 3.9 12.96C4.31333 12.5067 4.91333 12.28 5.7 12.28C6.08667 12.28 6.44 12.3667 6.76 12.54C7.08 12.7133 7.36667 12.9267 7.62 13.18V7.8H9.76V24H7.62V23.26C7.36667 23.5267 7.08667 23.7467 6.78 23.92C6.48667 24.08 6.14667 24.16 5.76 24.16ZM6.3 22.48C6.5 22.48 6.71333 22.4467 6.94 22.38C7.16667 22.3 7.39333 22.1867 7.62 22.04V14.46C7.43333 14.3267 7.22667 14.2133 7 14.12C6.77333 14.0133 6.52667 13.96 6.26 13.96C5.76667 13.96 5.43333 14.2 5.26 14.68C5.08667 15.1467 5 15.7133 5 16.38V19.64C5 20.1733 5.02667 20.66 5.08 21.1C5.14667 21.5267 5.27333 21.8667 5.46 22.12C5.64667 22.36 5.92667 22.48 6.3 22.48ZM13.7077 24V7.8H19.9877V9.48H15.9677V14.84H19.2277V16.44H15.9677V22.38H20.0277V24H13.7077ZM24.7722 24L22.4922 12.44H24.6522L26.0722 21.74L27.5122 12.44H29.5922L27.3922 24H24.7722Z" fill="black"/>
</svg>
